Coordinates
version=1
nRows=17
nColumns=24
inDegrees=yes

Units are S.I. units (second, meters, Newtons, ...)
Angles are in degrees.

endheader
time	pelvis_tilt	pelvis_list	pelvis_rotation	pelvis_tx	pelvis_ty	pelvis_tz	hip_flexion_r	hip_adduction_r	hip_rotation_r	knee_angle_r	ankle_angle_r	subtalar_angle_r	mtp_angle_r	hip_flexion_l	hip_adduction_l	hip_rotation_l	knee_angle_l	ankle_angle_l	subtalar_angle_l	mtp_angle_l	lumbar_extension	lumbar_bending	lumbar_rotation
      3.90500000	     -8.77051326	     -5.71977908	      9.11235127	     -0.35110419	     -0.03402179	      0.63650144	     30.41045353	      3.35180991	     -1.81940915	    -33.47151404	      3.15239926	     -4.31698988	     13.64001605	     18.24788244	     -5.20383370	      3.79270634	    -64.31207633	    -17.59892668	     12.88663448	     28.80775193	      8.33113373	     11.87790421	     -9.52109523
      3.91000000	     -8.70448251	     -5.70278134	      8.94998112	     -0.34446023	     -0.03284842	      0.63708204	     29.73812014	      3.53983207	     -1.68373425	    -33.15212189	      3.46751943	     -4.22416107	     13.51435818	     19.18736949	     -5.12974606	      3.65387999	    -65.35220214	    -17.48396156	     13.19265317	     30.93231400	      8.20140591	     11.91123990	     -9.17825227
      3.91500000	     -8.64180919	     -5.68317855	      8.79517973	     -0.33774883	     -0.03164358	      0.63765386	     29.02345353	      3.72776199	     -1.49049223	    -32.76420828	      3.82038934	     -4.12781700	     13.37073024	     20.11579518	     -5.05752493	      3.51147199	    -66.30469090	    -17.49916597	     13.35334672	     32.61448838	      8.09868822	     11.92936138	     -8.89401984
      3.92000000	     -8.55610610	     -5.67959369	      8.65806454	     -0.33107297	     -0.03042661	      0.63808187	     28.27594331	      3.89087833	     -1.41154292	    -32.34467765	      4.12255764	     -3.99780039	     13.40137318	     21.02720590	     -4.99269999	      3.35124010	    -67.24944422	    -17.31976443	     13.31446334	     32.96743422	      7.97150977	     11.97829022	     -8.56903695
      3.92500000	     -8.55079419	     -5.68334296	      8.45846537	     -0.32444427	     -0.02927098	      0.63882033	     27.61346654	      4.12752537	     -1.16428701	    -31.91566618	      4.34640393	     -4.11762912	     13.04736102	     22.00318113	     -4.97583151	      3.17420719	    -68.02794334	    -17.57127423	     13.22803089	     34.17670360	      7.91262442	     12.00170631	     -8.23422694
      3.93000000	     -8.47079246	     -5.68460468	      8.35591428	     -0.31778403	     -0.02804349	      0.63924564	     26.83709167	      4.27812104	     -1.07597575	    -31.43322863	      4.62675485	     -3.98662288	     13.05651829	     22.89359665	     -4.90840364	      3.06840239	    -68.76982170	    -17.54745597	     12.99925760	     34.33051675	      7.80754841	     12.03388256	     -7.99130347
      3.93500000	     -8.41494658	     -5.69948038	      8.22366871	     -0.31114359	     -0.02684020	      0.63973595	     26.07847849	      4.46175358	     -0.93252705	    -30.92421716	      4.85267243	     -3.93529662	     13.00566621	     23.79690706	     -4.87155081	      2.92944006	    -69.42121079	    -17.55270437	     12.63897806	     34.41388068	      7.72403329	     12.07812011	     -7.73278764
      3.94000000	     -8.37309784	     -5.70802986	      8.05479180	     -0.30453666	     -0.02569635	      0.64032703	     25.34086696	      4.65707657	     -0.77246527	    -30.42079102	      5.06784285	     -3.97173524	     12.87685199	     24.70181475	     -4.85895176	      2.72568635	    -69.99871538	    -17.52026210	     12.14260650	     34.38144505	      7.63870757	     12.11093676	     -7.44935454
      3.94500000	     -8.34955170	     -5.66910712	      7.84425094	     -0.29785802	     -0.02454771	      0.64095083	     24.60293124	      4.83013448	     -0.47295806	    -29.92623987	      5.36049777	     -3.92912732	     12.27488923	     25.58143254	     -4.80608610	      2.47016483	    -70.52086794	    -17.17069234	     11.69122308	     33.60435869	      7.57104925	     12.09494115	     -7.09030632
      3.95000000	     -8.31987910	     -5.66510030	      7.70610091	     -0.29123621	     -0.02343300	      0.64149251	     23.85257323	      4.99630311	     -0.28725454	    -29.38134762	      5.52739996	     -4.01814071	     12.10760278	     26.46073200	     -4.76197223	      2.29483414	    -70.94182365	    -16.91604180	     11.12980613	     33.41460300	      7.51301518	     12.10039343	     -6.85965375
      3.95500000	     -8.29593571	     -5.64129576	      7.50968822	     -0.28459342	     -0.02234504	      0.64211329	     23.10303587	      5.16529243	     -0.02797059	    -28.83440014	      5.68889682	     -4.10448465	     11.88682093	     27.30850695	     -4.72741383	      2.06524814	    -71.28891094	    -16.53789119	     10.61224002	     33.10853846	      7.44703219	     12.09242911	     -6.54954227
      3.96000000	     -8.27450172	     -5.60554754	      7.31138976	     -0.27795886	     -0.02129028	      0.64273678	     22.35097335	      5.31923278	      0.25014779	    -28.28241394	      5.84922734	     -4.19165703	     11.63186623	     28.13576693	     -4.67979847	      1.84361914	    -71.56129725	    -16.10104007	     10.11989016	     32.79919754	      7.38022106	     12.06927612	     -6.24443884
      3.96500000	     -8.26068761	     -5.58340305	      7.12107056	     -0.27135446	     -0.02028046	      0.64331924	     21.60739939	      5.46916096	      0.50206664	    -27.71930095	      5.98255844	     -4.24002164	     11.45926176	     28.95723679	     -4.63301710	      1.66345506	    -71.75452493	    -15.70200525	      9.63293589	     32.68307734	      7.31877412	     12.06333959	     -5.92228626
      3.97000000	     -8.25676760	     -5.51443176	      6.89421970	     -0.26473104	     -0.01930161	      0.64400052	     20.86610725	      5.59447347	      0.84517106	    -27.15688903	      6.10886168	     -4.37216397	     11.24510221	     29.74436095	     -4.56486366	      1.43467528	    -71.85544891	    -15.30141657	      9.13281030	     32.54083348	      7.25825708	     11.99907868	     -5.60456838
      3.97500000	     -8.25546751	     -5.42889503	      6.65174227	     -0.25810691	     -0.01836763	      0.64471748	     20.12677064	      5.70471226	      1.21602440	    -26.59761270	      6.23602958	     -4.50791416	     11.01128531	     30.50607291	     -4.49456855	      1.19420322	    -71.87970203	    -14.92005537	      8.64081852	     32.36913734	      7.19579137	     11.91747858	     -5.26887237
      3.98000000	     -8.26062255	     -5.32329979	      6.39011645	     -0.25149840	     -0.01748244	      0.64546961	     19.39666563	      5.79608222	      1.61681825	    -26.04662412	      6.35885043	     -4.65408989	     10.74800490	     31.24388084	     -4.41445995	      0.94590273	    -71.82401563	    -14.55821655	      8.14366126	     32.13276418	      7.12602950	     11.81041394	     -4.92021667
      3.98500000	     -8.27165946	     -5.20541167	      6.11709126	     -0.24490003	     -0.01665249	      0.64623730	     18.67366842	      5.87122547	      2.03908454	    -25.49938593	      6.48073661	     -4.80346949	     10.47157135	     31.96385966	     -4.33584948	      0.68444241	    -71.69342892	    -14.23280781	      7.63348936	     31.81507062	      7.05988374	     11.69098241	     -4.56435942
